HIERARCHY
ROOT Pelvis
{
	OFFSET 0.000000 0.000000 0.000000
	CHANNELS 6 Xposition Yposition Zposition Xrotation Yrotation Zrotation
	JOINT LeftUpLeg_virtual
	{
		OFFSET 0.000000 0.000000 0.000000
		CHANNELS 3 Xrotation Yrotation Zrotation
		JOINT LeftUpLeg
		{
			OFFSET 18.735201 -5.666702 -4.541200
			CHANNELS 3 Xrotation Yrotation Zrotation
			JOINT LeftLeg
			{
				OFFSET -0.021200 -31.938179 0.493100
				CHANNELS 3 Xrotation Yrotation Zrotation
				JOINT LeftFoot
				{
					OFFSET 0.021200 -31.938179 -4.336299
					CHANNELS 3 Xrotation Yrotation Zrotation
					JOINT LeftToeBase
					{
						OFFSET 0.943001 -26.722000 15.023500
						CHANNELS 3 Xrotation Yrotation Zrotation
						End Site
						{
							OFFSET 0 0 0
						}
					}
				}
			}
		}
	}
	JOINT RightUpLeg_virtual
	{
		OFFSET 0.000000 0.000000 0.000000
		CHANNELS 3 Xrotation Yrotation Zrotation
		JOINT RightUpLeg
		{
			OFFSET -18.735201 -5.666702 -4.541200
			CHANNELS 3 Xrotation Yrotation Zrotation
			JOINT RightLeg
			{
				OFFSET 0.018946 -31.938133 0.493100
				CHANNELS 3 Xrotation Yrotation Zrotation
				JOINT RightFoot
				{
					OFFSET -0.018946 -31.938126 -4.336299
					CHANNELS 3 Xrotation Yrotation Zrotation
					JOINT RightToeBase
					{
						OFFSET -0.943001 -26.722004 15.023500
						CHANNELS 3 Xrotation Yrotation Zrotation
						End Site
						{
							OFFSET 0 0 0
						}
					}
				}
			}
		}
	}
	JOINT Hips_virtual
	{
		OFFSET 0.000000 0.000000 0.000000
		CHANNELS 3 Xrotation Yrotation Zrotation
		JOINT Hips
		{
			OFFSET -0.000000 -0.000000 -0.000000
			CHANNELS 3 Xrotation Yrotation Zrotation
			JOINT Spine
			{
				OFFSET 0.000000 10.199997 -0.299500
				CHANNELS 3 Xrotation Yrotation Zrotation
				JOINT Spine1
				{
					OFFSET 0.000000 11.900002 -1.516600
					CHANNELS 3 Xrotation Yrotation Zrotation
					JOINT Spine2
					{
						OFFSET 0.000000 13.600006 -2.842500
						CHANNELS 3 Xrotation Yrotation Zrotation
						JOINT Neck_virtual
						{
							OFFSET 0.000000 0.000000 0.000000
							CHANNELS 3 Xrotation Yrotation Zrotation
							JOINT Neck
							{
								OFFSET 0.000000 9.624100 -2.890100
								CHANNELS 3 Xrotation Yrotation Zrotation
								JOINT Head
								{
									OFFSET 0.000000 14.068802 -1.351900
									CHANNELS 3 Xrotation Yrotation Zrotation
									End Site
									{
										OFFSET 0 0 0
									}
								}
							}
						}
						JOINT LeftShoulder_virtual
						{
							OFFSET 0.000000 0.000000 0.000000
							CHANNELS 3 Xrotation Yrotation Zrotation
							JOINT LeftShoulder
							{
								OFFSET 15.263000 10.923401 -0.547700
								CHANNELS 3 Xrotation Yrotation Zrotation
								JOINT LeftArm
								{
									OFFSET 25.438599 -2.830597 -13.032500
									CHANNELS 3 Xrotation Yrotation Zrotation
									JOINT LeftForeArm
									{
										OFFSET 29.960503 0.000000 0.000000
										CHANNELS 3 Xrotation Yrotation Zrotation
										JOINT LeftHand
										{
											OFFSET 27.849251 0.000000 0.000000
											CHANNELS 3 Xrotation Yrotation Zrotation
											End Site
											{
												OFFSET 0 0 0
											}
										}
									}
								}
							}
						}
						JOINT RightShoulder_virtual
						{
							OFFSET 0.000000 0.000000 0.000000
							CHANNELS 3 Xrotation Yrotation Zrotation
							JOINT RightShoulder
							{
								OFFSET -15.263000 10.923401 -0.547700
								CHANNELS 3 Xrotation Yrotation Zrotation
								JOINT RightArm
								{
									OFFSET -25.438599 -2.830597 -13.032500
									CHANNELS 3 Xrotation Yrotation Zrotation
									JOINT RightForeArm
									{
										OFFSET -29.960503 0.000000 0.000000
										CHANNELS 3 Xrotation Yrotation Zrotation
										JOINT RightHand
										{
											OFFSET -27.849251 0.000000 0.000000
											CHANNELS 3 Xrotation Yrotation Zrotation
											End Site
											{
												OFFSET 0 0 0
											}
										}
									}
								}
							}
						}
					}
				}
			}
		}
	}
}
MOTION
Frames: 9
Frame Time: 0.03333333
-6.729203 84.512184 47.845352 0.000000 0.000000 0.000000 29.618507 13.034958 -17.605371 -87.381991 -5.635551 16.107628 44.674164 5.420511 -11.503964 7.442207 -0.526687 14.552813 0.000000 0.000000 0.000000 30.212888 13.470549 -18.841324 -14.101527 -22.574894 -22.245784 72.665857 -4.710475 -3.095428 39.267680 -3.054548 7.740405 0.000000 0.000000 0.000000 29.415268 13.893345 -17.909226 0.450555 -0.237880 -0.954385 7.814582 11.072434 -7.450420 11.765730 11.003121 -7.403144 0.000000 0.000000 0.000000 11.410137 10.782768 -7.921411 -3.181403 -2.558937 3.880476 0.000000 0.000000 0.000000 11.959216 10.780094 -8.369962 2.369645 1.609627 5.157505 18.133502 -45.920390 -23.841851 1.656549 -28.957485 -0.569287 0.000000 0.000000 0.000000 12.580687 10.830448 -8.242437 5.089311 12.748287 -10.696893 -14.606271 54.888233 31.535731 0.114004 47.342500 5.091191 0.000000 0.000000 0.000000 
-6.582695 84.444290 49.018139 0.000000 0.000000 0.000000 27.525072 14.080853 -16.906361 -85.122578 -4.542382 16.895332 45.588603 4.831763 -11.710251 4.459511 -0.628064 14.380694 0.000000 0.000000 0.000000 28.008232 14.679198 -18.053775 -16.505985 -22.161645 -20.721486 68.067794 -3.002412 -3.687686 38.002903 -3.792157 6.035573 0.000000 0.000000 0.000000 27.173119 14.657948 -17.120231 0.604463 -0.266884 -0.934069 8.227427 9.920883 -8.006673 12.058095 10.328283 -7.511448 0.000000 0.000000 0.000000 11.674802 10.071607 -8.064747 -3.393623 -2.493894 3.761725 0.000000 0.000000 0.000000 12.300421 10.061354 -8.455702 2.409943 1.486261 5.704842 17.990117 -48.575800 -15.425315 1.567487 -28.310844 -0.437989 0.000000 0.000000 0.000000 13.032687 10.150552 -8.338987 4.252779 12.077794 -9.294314 -12.260960 50.936180 23.812111 0.865094 44.203219 4.359025 0.000000 0.000000 0.000000 
-6.281623 84.556206 50.388992 0.000000 0.000000 0.000000 25.366952 14.860431 -16.385209 -82.721603 -3.377034 17.402999 46.503353 4.267850 -11.834022 2.221960 -0.301329 14.307750 0.000000 0.000000 0.000000 25.729534 15.609725 -17.503190 -18.986130 -21.921467 -19.484127 63.987138 -1.151023 -4.179245 36.573003 -4.116146 4.006060 0.000000 0.000000 0.000000 24.953895 15.165165 -16.642775 0.828714 -0.519402 -0.969431 8.588645 8.706207 -8.639683 12.389967 9.399623 -7.560213 0.000000 0.000000 0.000000 12.045733 9.105288 -8.118119 -3.619293 -2.383320 3.628403 0.000000 0.000000 0.000000 12.663087 9.092815 -8.461446 2.346845 1.336350 6.383314 15.568436 -51.359355 -9.018908 1.355403 -27.172139 -0.164210 0.000000 0.000000 0.000000 13.564520 9.182385 -8.363658 3.555215 11.506834 -8.816488 -10.659947 47.486176 16.719383 1.428921 41.303827 3.736300 0.000000 0.000000 0.000000 
-5.837065 84.825714 51.921906 0.000000 0.000000 0.000000 23.173553 15.277301 -16.081354 -80.083633 -2.380783 17.672881 47.731360 3.718457 -11.663618 0.602796 0.271429 14.386504 0.000000 0.000000 0.000000 23.372976 16.113926 -17.226777 -21.201314 -21.848894 -18.711052 59.887064 0.607241 -4.652724 34.923686 -4.046436 2.079068 0.000000 0.000000 0.000000 22.764199 15.376171 -16.465460 1.112854 -0.803265 -0.987319 8.878682 7.251134 -9.207579 12.755724 8.082724 -7.510613 0.000000 0.000000 0.000000 12.508919 7.755455 -8.035622 -3.829436 -2.220017 3.477009 0.000000 0.000000 0.000000 13.028523 7.750806 -8.341241 2.171967 1.144231 7.116018 10.468225 -54.116183 -5.194327 0.986874 -25.498891 0.164022 0.000000 0.000000 0.000000 14.133844 7.809732 -8.288182 3.010506 11.142838 -9.369067 -10.363576 44.449809 10.922665 1.824200 38.854887 3.143114 0.000000 0.000000 0.000000 
-5.241455 85.212883 53.394920 0.000000 0.000000 0.000000 21.009973 15.194335 -16.027819 -77.007145 -1.744350 17.819033 48.978569 3.090381 -11.044702 -1.138893 0.599202 14.254482 0.000000 0.000000 0.000000 21.030048 16.045004 -17.192438 -22.743893 -21.766283 -18.255349 54.984222 2.299920 -5.109515 33.190840 -3.285403 0.976803 0.000000 0.000000 0.000000 20.599109 15.230250 -16.547598 1.260803 -1.112280 -0.956279 9.045989 5.538393 -9.573303 13.169301 6.339632 -7.332262 0.000000 0.000000 0.000000 12.966003 5.986251 -7.792938 -4.017467 -1.995469 3.292607 0.000000 0.000000 0.000000 13.363123 6.002233 -8.074534 1.896806 0.933621 7.877613 2.973296 -56.574423 -4.082323 0.499330 -23.535580 0.461406 0.000000 0.000000 0.000000 14.667558 6.013815 -8.085626 2.633100 11.062624 -10.815494 -11.717718 42.102229 6.910215 2.088923 36.903365 2.487201 0.000000 0.000000 0.000000 
-4.563751 85.622772 54.763603 0.000000 0.000000 0.000000 18.965651 14.545233 -16.226093 -73.546958 -1.378664 18.129817 50.104919 2.468995 -10.034542 -3.201408 0.630647 13.828940 0.000000 0.000000 0.000000 18.857918 15.351704 -17.439297 -23.553301 -21.804710 -18.116138 48.721788 4.032537 -5.141616 31.461163 -1.589742 1.289018 0.000000 0.000000 0.000000 18.497909 14.658530 -16.844278 1.211583 -1.343693 -0.854703 9.098545 3.640309 -9.627533 13.548868 4.264677 -7.011516 0.000000 0.000000 0.000000 13.351894 3.891719 -7.396888 -4.177156 -1.724911 3.071369 0.000000 0.000000 0.000000 13.640347 3.914506 -7.640881 1.549633 0.707202 8.633415 -6.098674 -58.347192 -5.300357 -0.084114 -21.502916 0.603254 0.000000 0.000000 0.000000 15.084973 3.890868 -7.738124 2.386391 11.249574 -12.763533 -15.398219 40.594734 5.404589 2.369295 35.619761 1.732513 0.000000 0.000000 0.000000 
-3.799703 86.039642 55.973206 0.000000 0.000000 0.000000 17.064280 13.318994 -16.692388 -70.065221 -0.904382 18.933079 51.048093 2.121038 -8.884933 -5.585708 0.572859 13.241101 0.000000 0.000000 0.000000 16.834019 13.991372 -17.929923 -24.082094 -22.073090 -18.289875 41.297608 5.727095 -4.272214 30.012678 1.074002 3.259768 0.000000 0.000000 0.000000 16.553732 13.583654 -17.328219 0.966210 -1.373774 -0.777117 9.081355 1.705856 -9.310066 13.857311 2.017589 -6.543826 0.000000 0.000000 0.000000 13.597025 1.627215 -6.852389 -4.339398 -1.426212 2.802354 0.000000 0.000000 0.000000 13.818445 1.660963 -7.063660 1.196232 0.536275 9.319205 -15.682200 -59.378113 -8.109685 -0.644153 -19.717388 0.595563 0.000000 0.000000 0.000000 15.302656 1.608590 -7.269416 2.270918 11.630733 -14.818112 -21.665138 39.908102 6.718034 2.675321 34.874652 0.831840 0.000000 0.000000 0.000000 
-2.976802 86.508133 56.887444 0.000000 0.000000 0.000000 15.328889 11.532258 -17.355067 -66.922248 -0.062374 20.206929 51.647896 2.163487 -7.767367 -8.059859 0.578137 12.651674 0.000000 0.000000 0.000000 14.993339 12.095538 -18.573093 -24.810652 -22.334561 -18.597374 33.331163 7.128300 -2.536729 29.019315 4.437671 6.616615 0.000000 0.000000 0.000000 14.826230 11.995390 -17.937014 0.772075 -1.284903 -0.778823 9.002109 -0.035754 -8.680788 14.011698 -0.185868 -5.973641 0.000000 0.000000 0.000000 13.653521 -0.593224 -6.217445 -4.523447 -1.118900 2.492964 0.000000 0.000000 0.000000 13.864080 -0.560336 -6.383202 0.879197 0.412772 9.982462 -24.983227 -59.861724 -11.981369 -1.136753 -18.591713 0.408496 0.000000 0.000000 0.000000 15.289641 -0.628268 -6.691937 2.222998 12.091103 -16.519193 -30.924757 39.392156 11.138643 3.014191 34.501642 -0.113154 0.000000 0.000000 0.000000 
-2.133461 87.074226 57.537476 0.000000 0.000000 0.000000 13.797699 9.276590 -18.092167 -64.325246 1.109322 21.699854 51.869836 2.547695 -6.714841 -10.215269 0.714029 12.192693 0.000000 0.000000 0.000000 13.362605 9.878161 -19.268303 -25.856357 -22.226173 -18.841705 25.714505 7.867069 -0.467226 28.076982 7.690557 10.380452 0.000000 0.000000 0.000000 13.361033 9.901821 -18.586084 0.511984 -1.125422 -0.855720 8.903272 -1.440854 -7.833927 13.973139 -2.164011 -5.337480 0.000000 0.000000 0.000000 13.564304 -2.579076 -5.537407 -4.740995 -0.824909 2.158716 0.000000 0.000000 0.000000 13.779759 -2.548474 -5.646675 0.642237 0.387341 10.651803 -33.905202 -60.016804 -16.627047 -1.492746 -18.144198 0.115192 0.000000 0.000000 0.000000 15.064930 -2.619860 -6.041687 2.175442 12.537447 -17.579459 -42.918337 38.069944 18.496774 3.388766 34.413580 -1.020400 0.000000 0.000000 0.000000 
